<svg width="48" viewBox="0 0 48 48" height="48" xmlns="http://www.w3.org/2000/svg"
   ><path style="fill:#fff;fill-opacity:1;stroke:none;stroke-width:0;stroke-linecap:round;stroke-linejoin:round;stroke-miterlimit:4;stroke-dasharray:none;stroke-opacity:1;paint-order:markers stroke fill" d="M7.9999995 3.7500012h32v19h-32z"
      /><path style="fill:none" d="M0 24H24V48H0zm0 0H24V48H0z"
      /><path d="m40 26.250001c2.2.0 3.98-1.6875 3.98-3.750001L44 3.7500011C44 1.6875009 42.2 1e-6 40 1e-6H7.9999996C5.8 1e-6 4 1.6875009 4 3.7500011V22.5c0 2.062501 1.8 3.750001 3.9999996 3.750001H3.9999999e-7v3.75H48v-3.75zM7.9999996 3.7500011H40V22.5H7.9999996z" style="fill:teal;fill-opacity:1;stroke-width:1.93649161"
      /><path style="stroke-width:1.5" d="M36 27H12c-1.65.0-2.985 1.35-2.985 3L9 45c0 1.65 1.35 3 3 3h24c1.65.0 3-1.35 3-3V30c0-1.65-1.35-3-3-3zm-13.5 4.5h3v3h-3zm0 4.5h3v3h-3zM18 31.5h3v3h-3zm0 4.5h3v3h-3zm-1.5 3h-3v-3h3zm0-4.5h-3v-3h3zM30 45H18v-3h12zm0-6h-3v-3h3zm0-4.5h-3v-3h3zm4.5 4.5h-3v-3h3zm0-4.5h-3v-3h3z"
      /><g transform="matrix(0.02499956,0,0,0.025,24.011469,12.855542)"><ellipse style="fill:#ff0;fill-opacity:1;stroke:#ff0;stroke-width:1.14207" cx="-.45451078" cy="5.7782927" rx="399.42944" ry="399.42896"
        /><path d="m-.96330386 355.77862a350.00079 350.00035.0 1 1 0-700.00062 350.0008 350.00034.0 0 1 0 700.00062zm0 49.99938a400.00052 399.99999.0 1 0 0-799.99936 400.00052 399.99999.0 0 0 0 799.99936z" style="stroke-width:50.0001"
        /><path d="m-185.01557 87.895422a25.196881 25.196849.0 0 1 34.41886 9.218419A176.27739 176.27716.0 0 0 2.1978174 185.30273 176.27739 176.27716.0 0 0 154.99047 97.113841 25.196881 25.196849.0 1 1 198.63162 122.31048 226.67115 226.67086.0 0 1 2.1978174 235.69578 226.67115 226.67086.0 0 1-194.23787 122.31048a25.196881 25.196849.0 0 1 9.1994-34.418762zm136.8183-154.558075c0 41.726968-22.575761 75.5915351-50.393084 75.5915351-27.817346.0-50.393106-33.8645671-50.393106-75.5915351.0-41.725037 22.57576-75.589607 50.393106-75.589607 27.817323.0 50.393084 33.86457 50.393084 75.589607zm201.57638.0c0 41.726968-22.57765 75.5915351-50.39497 75.5915351-27.817364.0-50.393201-33.8645671-50.393201-75.5915351.0-41.725037 22.575837-75.589607 50.393201-75.589607 27.81732.0 50.39497 33.86457 50.39497 75.589607z" style="stroke-width:50.3932"
        /></g></svg>